Coordinates
version=1
nRows=19
nColumns=24
inDegrees=yes

Units are S.I. units (second, meters, Newtons, ...)
If the header above contains a line with 'inDegrees', this indicates whether rotational values are in degrees (yes) or radians (no).

endheader
time	pelvis_tilt	pelvis_list	pelvis_rotation	pelvis_tx	pelvis_ty	pelvis_tz	hip_flexion_r	hip_adduction_r	hip_rotation_r	knee_angle_r	ankle_angle_r	subtalar_angle_r	mtp_angle_r	hip_flexion_l	hip_adduction_l	hip_rotation_l	knee_angle_l	ankle_angle_l	subtalar_angle_l	mtp_angle_l	lumbar_extension	lumbar_bending	lumbar_rotation
      4.15000000	      9.25835684	      1.85014535	   -178.90983077	      0.30791282	      0.46406130	     -1.22359634	     83.91170879	    -30.66614374	     -4.90039683	   -121.64792922	     44.09163521	      9.83514944	      0.00000000	     89.11661450	    -34.46672138	      4.84447541	   -119.47774083	     42.91431975	     23.08029767	      0.00000000	    -12.91301616	      1.87140565	      4.42638123
      4.15500000	      9.22053560	      1.84159373	   -178.91113774	      0.30793438	      0.46390554	     -1.22357109	     83.97106341	    -30.69471718	     -5.06589046	   -121.77791468	     43.73938105	      8.97685895	      0.00000000	     89.11298793	    -34.48300136	      4.85581848	   -119.51797484	     42.91473544	     23.11101122	      0.00000000	    -12.93304770	      1.87351900	      4.45190932
      4.16000000	      9.21718298	      1.85333577	   -178.91316876	      0.30801968	      0.46369704	     -1.22353763	     83.96036826	    -30.66324169	     -4.87460026	   -121.73096468	     44.06344502	      9.71913470	      0.00000000	     89.16833731	    -34.49249415	      4.88341898	   -119.55763928	     42.87970895	     23.06230890	      0.00000000	    -12.92505853	      1.90466479	      4.47531592
      4.16500000	      9.17329541	      1.83497831	   -178.89196229	      0.30807931	      0.46355707	     -1.22353733	     84.00629654	    -30.70881630	     -5.02374094	   -121.85027952	     43.72608526	      8.93499192	      0.00000000	     89.11474408	    -34.48461283	      4.81587356	   -119.52918864	     42.90867730	     22.98101647	      0.00000000	    -12.96114528	      1.89956468	      4.46265650
      4.17000000	      9.20020409	      1.82333687	   -178.87336690	      0.30818351	      0.46343669	     -1.22355936	     84.00199538	    -30.69033594	     -4.81473591	   -121.76562490	     44.07710621	      9.74394127	      0.00000000	     89.17666559	    -34.46229056	      4.84639809	   -119.55875756	     42.87922042	     23.07674453	      0.00000000	    -12.91455076	      1.89960819	      4.46849540
      4.17500000	      9.13387541	      1.80033806	   -178.83312614	      0.30832244	      0.46332080	     -1.22364083	     84.02280087	    -30.73915345	     -4.96361826	   -121.88217786	     43.75404342	      8.95132780	      0.00000000	     89.13289241	    -34.43930774	      4.83414227	   -119.56418750	     42.87618451	     23.10770537	      0.00000000	    -12.99604196	      1.87637324	      4.42007162
      4.18000000	      9.14018147	      1.81018026	   -178.81320436	      0.30849040	      0.46318143	     -1.22367897	     84.00596253	    -30.71012404	     -4.73459158	   -121.83473638	     44.07564783	      9.90310591	      0.00000000	     89.18920671	    -34.42107333	      4.86209739	   -119.57055688	     42.85618022	     23.10757194	      0.00000000	    -12.98691416	      1.89493284	      4.42657953
      4.18500000	      9.11950888	      1.80817110	   -178.80312636	      0.30849547	      0.46313243	     -1.22361506	     84.02065690	    -30.73859234	     -4.80543545	   -121.88701299	     43.95470449	      9.55157886	      0.00000000	     89.18150043	    -34.41370494	      4.86059148	   -119.59934266	     42.86377489	     23.07927298	      0.00000000	    -12.99302832	      1.89624110	      4.45824969
      4.19000000	      9.09977509	      1.81851810	   -178.81524876	      0.30866104	      0.46290528	     -1.22364531	     84.03114370	    -30.70243089	     -4.71946227	   -121.89411992	     44.10279395	      9.82157404	      0.00000000	     89.22974227	    -34.43344348	      4.90698170	   -119.63115827	     42.83205268	     23.07635169	      0.00000000	    -13.00595472	      1.92279703	      4.47018832
      4.19500000	      9.10871294	      1.81216832	   -178.79065192	      0.30873646	      0.46279461	     -1.22359951	     84.05450097	    -30.73852618	     -4.75054600	   -121.88289480	     44.12531214	      9.73393736	      0.00000000	     89.25625662	    -34.40801827	      4.90363345	   -119.64342136	     42.81595319	     23.09132510	      0.00000000	    -12.98935062	      1.91410129	      4.47821126
      4.20000000	      9.09387495	      1.80675656	   -178.76196867	      0.30888617	      0.46265473	     -1.22363199	     84.06662764	    -30.75745647	     -4.73816020	   -121.89630168	     44.08608958	      9.70820420	      0.00000000	     89.25560960	    -34.38581633	      4.86630749	   -119.61775520	     42.82878587	     23.04832423	      0.00000000	    -13.00078686	      1.91221928	      4.45759193
      4.20500000	      9.07333529	      1.77397899	   -178.74712153	      0.30899075	      0.46253485	     -1.22363021	     84.09428917	    -30.77159898	     -4.68523949	   -121.91717759	     44.08579485	      9.69853390	      0.00000000	     89.25941762	    -34.37234360	      4.86687245	   -119.66300331	     42.79311450	     23.12462606	      0.00000000	    -13.00958533	      1.89149010	      4.42784746
      4.21000000	      9.05748440	      1.77888614	   -178.73541465	      0.30907861	      0.46244570	     -1.22364220	     84.10493485	    -30.77016317	     -4.65315188	   -121.95936300	     44.07446926	      9.71086323	      0.00000000	     89.28262306	    -34.36813744	      4.88368955	   -119.66863979	     42.79855919	     23.12760945	      0.00000000	    -13.02212998	      1.89403167	      4.44788778
      4.21500000	      9.05495110	      1.78189261	   -178.74823077	      0.30919301	      0.46234641	     -1.22363952	     84.13311847	    -30.75849836	     -4.66896533	   -121.95254178	     44.09523709	      9.68229101	      0.00000000	     89.31712564	    -34.38948588	      4.89477646	   -119.68368540	     42.77708756	     23.13277091	      0.00000000	    -13.01547622	      1.90081392	      4.48472969
      4.22000000	      9.03638877	      1.78070482	   -178.73918673	      0.30931351	      0.46224514	     -1.22365633	     84.14328276	    -30.76710590	     -4.66736931	   -121.97523633	     44.09252152	      9.67542798	      0.00000000	     89.33303744	    -34.39004145	      4.90273414	   -119.69762257	     42.77403225	     23.13241085	      0.00000000	    -13.02828769	      1.89620593	      4.49321527
      4.22500000	      8.99601403	      1.77613899	   -178.73007260	      0.30948150	      0.46209864	     -1.22374072	     84.13958331	    -30.75833015	     -4.65452874	   -122.00200777	     44.08142327	      9.65497975	      0.00000000	     89.33630079	    -34.39740578	      4.91562790	   -119.71720460	     42.75268706	     23.14022281	      0.00000000	    -13.05718537	      1.90304970	      4.44655466
      4.23000000	      8.96020554	      1.77010394	   -178.70170957	      0.30961107	      0.46203431	     -1.22374980	     84.11946701	    -30.78570213	     -4.65627867	   -122.00994861	     44.05896760	      9.62973335	      0.00000000	     89.32234579	    -34.38296047	      4.91096520	   -119.71893304	     42.74019696	     23.17058431	      0.00000000	    -13.08881035	      1.90289097	      4.42170932
      4.23500000	      8.93884798	      1.76847533	   -178.69755720	      0.30974383	      0.46193059	     -1.22378750	     84.12641568	    -30.78453731	     -4.65032790	   -122.02536999	     44.06390569	      9.62397410	      0.00000000	     89.33412267	    -34.39022750	      4.92224601	   -119.73473499	     42.73547752	     23.17736144	      0.00000000	    -13.09843687	      1.90042319	      4.41570626
      4.24000000	      8.91143904	      1.77174286	   -178.69113849	      0.30986765	      0.46189990	     -1.22377838	     84.11760095	    -30.79323535	     -4.65904625	   -122.03151123	     44.07873337	      9.59940057	      0.00000000	     89.33799093	    -34.39447049	      4.93157310	   -119.74649094	     42.69647966	     23.18998595	      0.00000000	    -13.11972823	      1.90861735	      4.43310792
